<svg id="gallows" xmlns="http://www.w3.org/2000/svg" viewBox="0 0 410.61 488.5"><defs><style>.cls-1{fill:none;stroke:#000;stroke-miterlimit:10;stroke-width:10px;}</style></defs><title>Hanged</title><g id="plank1"><rect x="101.61" width="15" height="391"/></g><circle id="head" class="cls-1" cx="330.28" cy="125.56" r="38.5"/><rect id="body" class="cls-1" x="327.61" y="166" width="6" height="139" rx="1.67"/><rect id="leftLeg" class="cls-1" x="309" y="306" width="4" height="109" rx="1.43" transform="translate(126.42 -78.54) rotate(18.02)"/><rect id="rightLeg" class="cls-1" x="347" y="306" width="4" height="109" rx="1.43" transform="translate(792.03 595.32) rotate(161.98)"/><rect id="rightHand" class="cls-1" x="364" y="126" width="4" height="109" rx="1.43" transform="translate(170.42 -177.88) rotate(35.17)"/><rect id="leftHand" class="cls-1" x="292" y="126" width="4" height="109" rx="1.43" transform="translate(636.95 146.8) rotate(142.85)"/><g id="plank2"><rect x="101.61" width="309" height="15"/></g><rect id="rope" x="322.61" y="15" width="5" height="150"/><polygon id="x2" points="217.95 365.04 216.17 391.24 0 417.2 1.78 391.01 217.95 365.04"/><polygon id="x1" points="90.04 488.5 61.79 485.46 127.91 293.75 156.16 296.79 90.04 488.5"/></svg>